<?xml version="1.0" standalone="no"?>
<!DOCTYPE svg PUBLIC "-//W3C//DTD SVG 20010904//EN"
 "http://www.w3.org/TR/2001/REC-SVG-20010904/DTD/svg10.dtd">
<svg version="1.0" xmlns="http://www.w3.org/2000/svg"
 width="300.000000pt" height="300.000000pt" viewBox="0 0 300.000000 300.000000"
 preserveAspectRatio="xMidYMid meet">
<metadata>
Created by potrace 1.10, written by Peter Selinger 2001-2011
</metadata>
<g transform="translate(0.000000,300.000000) scale(0.100000,-0.100000)"
fill="#000000" stroke="none">
<path d="M1612 2578 c-8 -8 -12 -57 -12 -155 0 -121 3 -146 17 -163 29 -34 65
-26 96 22 15 23 27 35 28 28 3 -68 16 -94 49 -103 36 -9 49 8 149 200 35 67
35 97 -2 107 -26 6 -63 -16 -72 -44 -10 -31 -32 -25 -28 8 5 31 -27 72 -57 72
-22 0 -48 -24 -61 -57 -13 -35 -24 -28 -26 19 -2 23 -9 47 -15 54 -21 19 -53
25 -66 12z m60 -32 c4 -6 6 -48 5 -93 l-3 -82 42 77 c27 50 48 78 61 80 35 5
45 -21 41 -108 -2 -44 -2 -80 -1 -80 1 0 21 36 44 81 39 75 44 80 68 74 14 -4
27 -8 29 -9 3 -4 -138 -266 -143 -266 -2 0 -15 4 -29 10 -25 9 -26 13 -26 92
l0 83 -40 -72 c-40 -71 -57 -84 -87 -65 -8 5 -12 52 -13 147 -1 77 -1 144 -1
148 1 11 44 -3 53 -17z"/>
<path d="M1269 2532 c-21 -18 -22 -21 -9 -66 7 -26 10 -49 7 -53 -13 -12 -35
7 -42 37 -4 17 -18 38 -31 46 -22 15 -26 15 -49 0 -31 -20 -31 -25 1 -122 14
-44 27 -83 28 -89 2 -5 6 -19 10 -30 30 -79 27 -76 59 -71 46 7 56 31 38 93
-5 17 -7 34 -4 37 10 9 43 -14 43 -30 0 -24 31 -64 50 -64 41 0 68 68 38 98
-7 7 -9 12 -6 12 11 0 -61 203 -74 212 -20 12 -34 10 -59 -10z m97 -140 l42
-133 -25 -10 c-14 -5 -27 -8 -28 -7 -1 2 -10 26 -19 54 l-17 52 -34 -11 c-40
-12 -41 -18 -20 -77 8 -24 14 -44 13 -46 -2 -1 -15 -5 -29 -9 -24 -6 -26 -3
-67 122 -23 70 -42 133 -42 139 0 12 38 26 51 18 4 -2 13 -27 20 -54 7 -28 16
-50 19 -50 25 0 70 24 66 35 -24 64 -29 97 -15 106 32 20 43 3 85 -129z"/>
<path d="M970 2400 c-66 -46 -100 -77 -100 -90 0 -17 39 -50 58 -50 10 0 23 5
28 10 7 7 29 -16 68 -74 62 -92 86 -108 117 -80 19 17 27 74 11 74 -5 0 -30
32 -56 71 -43 65 -46 73 -31 88 8 10 15 25 15 34 0 15 -37 57 -49 57 -3 0 -31
-18 -61 -40z m85 -2 c14 -21 14 -24 -1 -35 -9 -7 -21 -14 -27 -16 -5 -1 21
-47 58 -101 64 -92 66 -98 49 -111 -11 -8 -22 -15 -26 -15 -6 0 -66 80 -119
160 -15 23 -17 24 -41 8 -24 -16 -27 -16 -44 3 -11 13 -14 23 -8 29 17 17 129
99 136 99 4 1 14 -9 23 -21z"/>
<path d="M2035 2405 c-19 -20 -62 -77 -95 -127 -57 -87 -59 -91 -43 -112 18
-23 124 -96 140 -96 5 0 19 10 30 23 26 27 17 55 -26 87 -46 32 -27 44 24 14
l44 -26 25 27 c29 31 24 49 -21 85 -31 24 -25 23 29 -5 l38 -19 20 24 c11 13
20 28 20 35 0 12 -30 41 -70 68 -14 9 -38 26 -53 38 l-28 21 -34 -37z m97 -31
c35 -25 64 -49 66 -53 1 -4 -4 -16 -12 -26 -14 -20 -16 -19 -61 13 -44 31 -48
32 -61 15 -19 -25 -19 -24 31 -58 25 -16 45 -33 45 -36 0 -3 -8 -13 -18 -22
-17 -15 -21 -14 -62 13 l-45 30 -17 -23 c-23 -29 -23 -30 10 -50 58 -36 64
-44 52 -66 -6 -12 -15 -21 -20 -21 -14 0 -141 91 -138 99 5 12 161 231 165
231 2 0 31 -21 65 -46z"/>
<path d="M778 2241 c-10 -10 -18 -24 -18 -32 0 -14 42 -69 54 -69 6 0 29 -18
80 -62 30 -26 30 -28 14 -45 -11 -10 -18 -13 -18 -5 0 7 -5 12 -11 12 -7 0
-35 20 -63 43 -71 61 -91 70 -115 55 -40 -24 -35 -50 20 -100 29 -27 54 -48
58 -48 3 0 18 -11 32 -24 30 -27 92 -48 117 -39 84 31 119 129 68 190 -33 39
-170 143 -187 142 -8 0 -22 -8 -31 -18z m185 -120 c48 -46 51 -95 8 -143 -42
-47 -81 -44 -162 14 -114 83 -125 94 -113 114 17 29 29 27 85 -19 100 -80 116
-89 139 -77 42 23 25 55 -66 126 l-85 67 22 23 22 23 56 -46 c31 -26 73 -63
94 -82z"/>
<path d="M2215 2199 c-22 -20 -35 -40 -35 -55 0 -21 -3 -23 -18 -15 -29 16
-57 2 -70 -33 -23 -64 -8 -113 47 -154 53 -39 134 -10 156 54 12 38 11 37 33
25 17 -9 24 -6 46 20 32 37 33 80 5 126 -42 67 -108 81 -164 32z m131 -23 c40
-40 46 -90 14 -127 l-20 -24 -20 23 c-16 19 -17 27 -7 43 15 24 -1 53 -32 57
-25 4 -27 -15 -9 -81 15 -57 5 -93 -32 -112 -44 -23 -69 -18 -106 19 -42 42
-46 91 -10 132 l23 28 17 -26 c14 -22 15 -30 5 -46 -22 -36 14 -78 45 -52 13
10 13 17 0 52 -26 76 -15 122 36 141 36 13 63 6 96 -27z m-46 -71 c0 -8 -4
-15 -10 -15 -5 0 -10 7 -10 15 0 8 5 15 10 15 6 0 10 -7 10 -15z m-100 -60 c0
-8 -4 -15 -10 -15 -5 0 -10 7 -10 15 0 8 5 15 10 15 6 0 10 -7 10 -15z"/>
<path d="M2417 1992 c-10 -10 -17 -30 -17 -44 0 -21 -9 -29 -49 -47 -27 -11
-56 -21 -63 -21 -25 0 -78 -40 -78 -59 0 -10 8 -29 19 -42 l18 -23 97 38 96
39 19 -22 c14 -16 26 -20 45 -15 44 11 51 28 31 82 -10 26 -22 51 -26 57 -5 5
-9 17 -9 26 0 23 -27 49 -49 49 -10 0 -25 -8 -34 -18z m83 -78 c28 -72 31 -87
19 -95 -24 -15 -39 -10 -49 17 -6 15 -16 24 -23 21 -6 -3 -55 -22 -106 -42
-90 -35 -96 -36 -108 -19 -7 10 -12 22 -10 28 2 5 51 28 109 50 l106 42 -14
27 c-13 25 -13 27 13 41 16 8 28 15 29 16 1 0 16 -39 34 -86z"/>
<path d="M611 1964 c-53 -38 -67 -135 -25 -177 59 -60 195 -96 249 -67 56 30
72 128 30 179 -21 24 -100 66 -127 66 -3 0 -10 3 -14 8 -14 13 -89 7 -113 -9z
m146 -26 c77 -28 99 -43 113 -78 10 -24 9 -36 -9 -74 -26 -59 -54 -73 -117
-57 -55 14 -135 53 -153 75 -22 27 -8 106 24 133 33 29 68 29 142 1z"/>
<path d="M641 1879 c-12 -35 -5 -45 47 -67 92 -40 119 -38 124 8 3 21 -5 29
-46 48 -27 13 -64 26 -82 29 -29 5 -35 2 -43 -18z m101 -21 c50 -23 64 -49 26
-47 -50 2 -115 39 -103 58 9 16 22 14 77 -11z"/>
<path d="M1270 1830 c-8 -5 -10 -10 -5 -10 6 0 17 5 25 10 8 5 11 10 5 10 -5
0 -17 -5 -25 -10z"/>
<path d="M1154 1738 l-19 -23 23 19 c21 18 27 26 19 26 -2 0 -12 -10 -23 -22z"/>
<path d="M1116 1703 c-6 -14 -5 -15 5 -6 7 7 10 15 7 18 -3 3 -9 -2 -12 -12z"/>
<path d="M2350 1694 c-63 -13 -189 -33 -280 -45 -129 -16 -179 -27 -230 -49
-74 -33 -177 -60 -232 -60 -39 0 -59 13 -155 102 -38 35 -60 48 -82 48 -16 0
-33 5 -36 10 -10 16 -41 12 -56 -7 -12 -14 -12 -16 1 -11 19 7 52 -10 45 -23
-4 -5 8 -39 25 -75 18 -36 29 -68 26 -71 -3 -4 -95 -1 -204 5 -209 12 -360 3
-393 -25 -21 -18 -69 -17 -69 2 0 11 -8 13 -32 8 -18 -3 -39 -9 -47 -13 -21
-11 -73 6 -94 31 -43 52 0 159 64 159 24 0 29 -4 29 -25 0 -18 -7 -28 -25 -35
-28 -10 -35 -50 -12 -68 18 -15 34 -2 53 43 24 60 42 75 86 75 28 0 46 -7 65
-26 22 -22 25 -32 21 -75 -4 -38 -2 -47 7 -39 13 11 14 69 1 106 -3 12 -26 32
-51 45 l-44 23 -39 -22 c-48 -27 -48 -27 -55 -2 -6 25 -52 27 -85 4 -84 -59
-55 -201 43 -210 22 -2 58 -10 81 -18 22 -8 68 -18 102 -22 35 -3 61 -9 58
-11 -3 -3 -53 -22 -112 -42 -58 -20 -105 -40 -103 -46 5 -13 194 -10 234 4 25
9 22 10 -25 5 -193 -19 -210 -7 -55 39 53 16 79 32 72 44 -6 10 -64 27 -80 24
-5 -1 -6 3 -2 9 3 5 12 10 20 10 7 0 15 4 17 9 6 19 108 26 341 23 272 -3 267
-5 223 79 -14 28 -26 58 -26 67 0 8 -8 25 -18 36 -17 20 -17 20 10 3 15 -9 33
-14 41 -11 8 3 21 -1 28 -8 8 -7 47 -42 87 -78 72 -63 75 -64 125 -62 67 3
152 25 235 61 55 23 102 32 252 50 102 12 210 28 240 35 30 8 78 17 105 20
l50 5 -40 -25 c-22 -13 -57 -29 -78 -36 -20 -6 -42 -18 -49 -25 -16 -20 117
31 165 63 77 50 35 56 -143 18z m-1726 -108 c-6 -16 -24 -23 -24 -8 0 10 22
33 27 28 2 -2 1 -11 -3 -20z"/>
<path d="M1079 1653 c-13 -16 -12 -17 4 -4 9 7 17 15 17 17 0 8 -8 3 -21 -13z"/>
<path d="M692 1565 c-27 -55 -27 -54 -2 -48 11 3 20 9 20 13 0 5 10 10 23 12
31 4 32 62 2 66 -16 2 -26 -8 -43 -43z m48 5 c0 -5 -4 -10 -10 -10 -5 0 -10 5
-10 10 0 6 5 10 10 10 6 0 10 -4 10 -10z"/>
<path d="M2344 1592 c4 -7 33 -12 69 -12 65 0 107 -8 107 -19 0 -4 -35 -13
-77 -20 -106 -17 -112 -22 -23 -16 79 5 151 24 157 42 4 11 -36 19 -161 29
-59 5 -77 4 -72 -4z"/>
<path d="M2385 1495 c22 -7 49 -14 60 -14 27 -1 98 -21 93 -27 -3 -2 -42 -7
-89 -10 -46 -3 -86 -8 -88 -10 -2 -2 29 -4 70 -4 77 0 149 14 149 30 0 9 -109
35 -185 43 l-50 6 40 -14z"/>
<path d="M2360 1414 c0 -3 17 -13 38 -22 l37 -17 -54 -3 c-33 -2 -65 -11 -81
-22 -108 -77 -244 -120 -405 -128 -85 -4 -102 -7 -75 -13 101 -23 356 38 466
111 31 20 57 28 114 33 88 7 108 21 59 40 -39 16 -99 29 -99 21z"/>
<path d="M771 1287 c-52 -23 -95 -46 -95 -52 -2 -26 191 -4 234 26 12 8 9 9
-10 4 -14 -3 -50 -9 -80 -13 -30 -4 -60 -11 -67 -15 -6 -4 -15 -3 -18 3 -4 6
25 25 69 46 69 32 89 44 69 44 -5 0 -50 -19 -102 -43z"/>
<path d="M863 1220 c-28 -16 -54 -34 -58 -40 -12 -19 25 -22 95 -6 65 14 75
14 172 -5 136 -27 357 -35 460 -17 76 14 79 14 98 -7 16 -18 20 -35 20 -99 0
-77 1 -79 38 -116 62 -62 148 -74 221 -29 30 18 71 73 71 94 0 6 -43 55 -95
110 -52 55 -94 96 -94 90 0 -5 40 -52 89 -104 87 -92 89 -95 75 -121 -22 -43
-87 -80 -140 -80 -52 0 -77 10 -117 48 -26 24 -28 31 -28 107 0 76 -2 83 -28
108 l-29 28 -89 -16 c-131 -23 -248 -18 -464 20 -19 3 -50 10 -69 15 -19 5
-39 6 -45 3 -11 -7 -106 -22 -106 -17 0 2 20 15 45 30 25 14 45 28 45 30 0 9
-18 2 -67 -26z"/>
<path d="M1090 926 c0 -2 8 -10 18 -17 15 -13 16 -12 3 4 -13 16 -21 21 -21
13z"/>
<path d="M2014 838 l-19 -23 23 19 c21 18 27 26 19 26 -2 0 -12 -10 -23 -22z"/>
<path d="M1975 810 c-3 -5 -1 -10 4 -10 6 0 11 5 11 10 0 6 -2 10 -4 10 -3 0
-8 -4 -11 -10z"/>
<path d="M1915 760 c-3 -6 1 -7 9 -4 18 7 21 14 7 14 -6 0 -13 -4 -16 -10z"/>
</g>
</svg>
